<svg width="16" height="16" viewBox="0 0 16 16" fill="none" xmlns="http://www.w3.org/2000/svg">
<path d="M8 13.3333H14" stroke="#4D4D4D" stroke-width="2" stroke-linecap="round" stroke-linejoin="round"/>
<path d="M10.9172 2.41473C11.1825 2.14934 11.5425 2.00024 11.9178 2.00024C12.2931 2.00024 12.6531 2.14934 12.9185 2.41473C13.1839 2.68013 13.333 3.04008 13.333 3.4154C13.333 3.79072 13.1839 4.15067 12.9185 4.41607L4.91182 12.4234C4.75322 12.582 4.55717 12.698 4.34182 12.7607L2.42716 13.3194C2.36979 13.3361 2.30898 13.3371 2.25109 13.3223C2.19321 13.3075 2.14037 13.2774 2.09812 13.2351C2.05587 13.1928 2.02575 13.14 2.01092 13.0821C1.99609 13.0242 1.99709 12.9634 2.01382 12.9061L2.57249 10.9914C2.6353 10.7763 2.75132 10.5805 2.90982 10.4221L10.9172 2.41473Z" stroke="#4D4D4D" stroke-width="2" stroke-linecap="round" stroke-linejoin="round"/>
<path d="M10 3.33325L12 5.33325" stroke="#4D4D4D" stroke-width="2" stroke-linecap="round" stroke-linejoin="round"/>
</svg>
